<?xml version="1.0" standalone="no"?>
<svg
  width="600"
  height="600"
  viewBox="0 0 600 600"
  xmlns="http://www.w3.org/2000/svg"
>
  <g transform="translate(300,300)">
    <path d="M157.8,-198.7C203.9,-183.7,240.3,-136.8,231,-92.4C221.6,-47.9,166.4,-5.9,147.4,46.5C128.5,98.8,145.6,161.5,127.1,200.1C108.5,238.7,54.3,253.4,3.9,248C-46.4,242.6,-92.9,217.2,-119.2,181C-145.5,144.9,-151.7,98.1,-144.2,61.1C-136.6,24,-115.4,-3.3,-106.3,-35.6C-97.3,-67.9,-100.4,-105.1,-84.7,-130C-69,-154.9,-34.5,-167.5,10.7,-182.2C55.8,-196.9,111.7,-213.7,157.8,-198.7Z" fill="#fbc8c7" />
  </g>
</svg>
  